# xmcd
#
# Track frame offsets:
#	150
#	15837
#	31187
#	44838
#	63016
#	80716
#	97377
#	113497
#	128717
#	143373
#	158225
#	170370
#	181075
#	196732
#	209321
#	230378
#	241456
#	252013
#	265134
#	289737
#
# Disc length: 4111 seconds
#
# Revision: 1
# Processed by: cddbd v1.4b42PL1 Copyright (c) Steve Scherf et al.
# Submitted via: audiograbber 1.80
#
DISCID=05100d14
DTITLE=Various Artist - Beach Music Anthology Volume 3 Disc 4
DYEAR=1900
DGENRE=
TTITLE0=Drifters, The - Pour You Little Heart Out
TTITLE1=Lenny Williams - Ten Ways Of Loving You
TTITLE2=Billy Ocean - Love Really Hurts Without You
TTITLE3=Tommy James - You're So Easy To Love
TTITLE4=Grayson Hugh - Talk It Over
TTITLE5=Archie Bell - Old People
TTITLE6=Lou Rawls - Lady Love
TTITLE7=David Ruffin and Eddie Kendrick - I Couldn't Believe It
TTITLE8=Dells, The - My Life Is So Wonderful
TTITLE9=Van McCoy - My Favorite Fantasy
TTITLE10=Sonny Terry and Brownie McGee - You Bring Out The Boogie In Me
TTITLE11=Lloyd Price - C'est Si Bon
TTITLE12=Arthur Prysock - When Love Is New
TTITLE13=Mills Brothers, The - Smack Dab In The Middle
TTITLE14=Louis Prima - Just A Gigolo - I Ain't Got Nobody
TTITLE15=Jimmy Liggins  - Boogie Woogie King
TTITLE16=Etta James - Good Rockin' Daddy
TTITLE17=Young Jessie - Mary Lou
TTITLE18=Bobby Bland and B.B. King - Let The Good Times Roll
TTITLE19=Richard "Dimples" Fields - Jazzy Lady
EXTD=
EXTT0=
EXTT1=
EXTT2=
EXTT3=
EXTT4=
EXTT5=
EXTT6=
EXTT7=
EXTT8=
EXTT9=
EXTT10=
EXTT11=
EXTT12=
EXTT13=
EXTT14=
EXTT15=
EXTT16=
EXTT17=
EXTT18=
EXTT19=
PLAYORDER=
